<svg id="Layer_1" data-name="Layer 1" xmlns="http://www.w3.org/2000/svg" xmlns:xlink="http://www.w3.org/1999/xlink" width="132.29mm" height="235.3mm" viewBox="0 0 375 667"><defs><style>.cls-1,.cls-7{fill:none;}.cls-2{clip-path:url(#clip-path);}.cls-3{fill:#fff;}.cls-4{fill:#f7f5d7;}.cls-5{fill:#8ba082;}.cls-6{fill:#fbdad4;}.cls-7{stroke:#fff;stroke-miterlimit:10;}.cls-8{fill:#bad3af;}.cls-9{fill:#f8ed77;}.cls-10{fill:#d7e9d1;}.cls-11{fill:#d1e5ef;}</style><clipPath id="clip-path"><rect class="cls-1" width="375" height="667"/></clipPath></defs><title>ananaas</title><g id="Layer_2" data-name="Layer 2"><g class="cls-2"><g id="iPhone_6_7_8_8" data-name="iPhone 6 7 8 8"><rect class="cls-3" width="375" height="667"/></g></g><rect class="cls-4" width="375" height="667"/></g><path class="cls-5" d="M54.18,166.26s30.15,20.51,41.14,23.5c0,0,13.43,15.19,14.39,17.62s-13.12-7.49-13.12-7.49l-.1,24.87L84.28,214l1.27,29.89L75.42,218.84s-6.23,36.43-11,44L57.74,244s-9,30.61-16.31,36.79l-.76-9.37L15.5,296.57l-2.08-21.89L-7.81,301.13S2.62,264.76,5,261.41l-12.91,5.32,27.24-39.47-24.41,4.87,27.91-21.69L9.91,205.88,39,185.36s-12.21-4.15-13.73-6.43l23.81-3.81-8.86-5.06S50.13,163.56,54.18,166.26Z"/><path class="cls-6" d="M47.5,134.16a36.4,36.4,0,0,0,9.72,26.67c14.82,16,48.06,41.52,86.63,5,52.32-49.61,8.4-93.52-3.77-99.52S92.89,45.81,61.27,94.59C61.27,94.59,48.69,112.35,47.5,134.16Z"/><line class="cls-7" x1="53.7" y1="108.75" x2="152.62" y2="77.13"/><line class="cls-7" x1="66.05" y1="87.71" x2="140.08" y2="66.27"/><line class="cls-1" x1="86.8" y1="67.7" x2="118.1" y2="59.72"/><line class="cls-7" x1="80.95" y1="71.92" x2="126.83" y2="61.23"/><polyline class="cls-7" points="164.04 138.54 65.44 168.71 131.58 62.67"/><line class="cls-7" x1="85.96" y1="180.44" x2="140.75" y2="168.48"/><polyline class="cls-7" points="126.34 178.31 168.83 119.32 52.66 154.76 113.03 59.54"/><polyline class="cls-7" points="110.64 184.39 166.61 102.06 47.57 139.05"/><polyline class="cls-7" points="92.08 183.12 159.46 85.74 50.62 123.93"/><line class="cls-7" x1="77.94" y1="177.48" x2="147.9" y2="71.99"/><line class="cls-7" x1="48.18" y1="143.31" x2="93.45" y2="64.05"/><path class="cls-7" d="M5,261.41s28-17,29.56-21.22l6.87,40.62"/><line class="cls-7" x1="13.42" y1="274.68" x2="15.22" y2="254.99"/><path class="cls-7" d="M61.43,223.38l6.33,16.14,7.66-20.68L45,229.3l-2.88-14.25c-3.36,6.61-22.76,12.21-22.76,12.21s6.25-16.95,12.51-21.89"/><polyline class="cls-7" points="58.93 180.23 74.91 206.1 85.17 195.22 76.32 180.33 39.89 180.13 59.33 169.69"/><polyline class="cls-7" points="85.17 195.22 91.6 204.55 93.69 189.31"/><path class="cls-7" d="M66.24,192.06s-28.31,16.78-34.4,13.31l19.55-25.18L9.91,205.88"/><path class="cls-7" d="M74.91,206.1s-3.47,7.8,10.64,37.82"/><path class="cls-7" d="M42.09,215.05s1-11.38-.85-10.77"/><path class="cls-7" d="M54.89,226.4s2.34,20.16,9.49,36.47"/><path class="cls-7" d="M37.9,259.94s-14.24,21.72-17.31,23.38c0,0-2.87-29.9.16-32"/><path class="cls-8" d="M193.74,439.83s-49.8-2.87-64.8,1.35c0,0-26.43-8.39-29.27-10.57s20.66-.43,20.66-.43L103,400.93l21.88,4-22.5-34.18,29.52,22.3s-18.3-47.12-18-59.42l21,17.45s-10.94-42.24-6.72-54.62l7.48,10.46,11.87-47.19L165.36,284,171.67,238s13.33,50,12.89,55.61L196,278.3l-4.23,65.46L217,320.89,199.47,366l18.36-3.73-19.75,44.56s17.25-3.72,20.63-2.11l-25.26,21.2,14-.29S200.38,440.16,193.74,439.83Z"/><path class="cls-9" d="M224.14,472.8A49.78,49.78,0,0,0,194,448.35c-28.6-8.33-85.57-15-105.12,55.06-26.53,95,55.87,115.63,74.36,114.13s69.75-9.16,72.57-88.63C235.79,528.91,238.06,499.23,224.14,472.8Z"/><line class="cls-7" x1="234.71" y1="506.98" x2="140.88" y2="613.6"/><line class="cls-7" x1="235.01" y1="540.34" x2="163.22" y2="617.54"/><line class="cls-1" x1="224.74" y1="578.41" x2="193.61" y2="609.77"/><line class="cls-7" x1="228.63" y1="569.35" x2="182.31" y2="614.13"/><polyline class="cls-7" points="84.31 549.58 178.8 444.87 175.73 615.78"/><line class="cls-7" x1="146.48" y1="445.54" x2="90.6" y2="498.07"/><polyline class="cls-7" points="100.59 476.41 92.21 575.49 203.59 452.26 199.69 606.42"/><polyline class="cls-7" points="114.74 458.24 106.94 594.19 220.62 467.12"/><polyline class="cls-7" points="137.41 446.69 126.8 608.3 227.66 487"/><line class="cls-7" x1="157.96" y1="443.37" x2="150.02" y2="616.32"/><line class="cls-7" x1="216.9" y1="462.54" x2="219.49" y2="587.36"/><path class="cls-7" d="M184.56,293.62s-20.91,39.59-19.77,45.68l-36.61-42.83"/><line class="cls-7" x1="165.36" y1="283.96" x2="177.08" y2="308.34"/><path class="cls-7" d="M145.08,377.91l-18.77-14.49,5.55,29.64,28.37-33.67,13.39,14.69c-.7-10.11,18.12-30.32,18.12-30.32s4.59,24.28.72,34.49"/><polyline class="cls-7" points="178.34 426.78 141.4 407.66 137.02 427.63 157.87 438.88 200.75 413.51 185.28 439.43"/><polyline class="cls-7" points="137.02 427.63 122.91 421.2 131.17 440.56"/><path class="cls-7" d="M161.45,418s21.43-39.59,31-39.78l-5.25,43.28,30.62-59.31"/><path class="cls-7" d="M141.4,407.66s-1.4-11.59-39.06-36.9"/><path class="cls-7" d="M173.62,374.08s6.8,14.08,8.58,12.05"/><path class="cls-7" d="M150.63,369.76s-16.92-22-36.77-36.12"/><path class="cls-7" d="M147,318.47s1.44-35.5,3.89-39.6c0,0,24.37,33.06,22.27,37.62"/><path class="cls-10" d="M360.9,186s-31.68-3.33-41.37-1.09c0,0-16.62-6.15-18.37-7.62s13.2.35,13.2.35l-10.2-19.19L318,161.63l-13.33-22.48,18.16,15.11s-10.26-30.61-9.7-38.45L326,127.57s-5.71-27.27-2.65-35l4.46,6.9,9-29.74,10.64,16,5.41-29.12s7,32.3,6.55,35.86L367.18,83l-4.66,41.64,16.78-13.84L366.78,139l11.83-1.83L364.67,165s11.11-1.85,13.22-.72L361.14,177l8.91.24S365.13,186.37,360.9,186Z"/><path class="cls-11" d="M379.31,207.91A31.78,31.78,0,0,0,360.8,191.4c-18-6.17-54.14-12.11-68.72,32-19.78,59.8,32.17,75.45,44,75.05s44.78-3.75,49-54.36C385.05,244.06,387.4,225.19,379.31,207.91Z"/><line class="cls-7" x1="385.02" y1="230.03" x2="321.96" y2="295.23"/><line class="cls-7" x1="384.21" y1="251.32" x2="336.09" y2="298.42"/><line class="cls-1" x1="376.52" y1="275.3" x2="355.72" y2="294.37"/><line class="cls-7" x1="379.27" y1="269.64" x2="348.38" y2="296.81"/><polyline class="cls-7" points="287.79 252.69 351.22 188.72 344.13 297.67"/><line class="cls-7" x1="330.58" y1="188.18" x2="293.35" y2="220.02"/><polyline class="cls-7" points="300.38 206.5 292.05 269.46 366.82 194.18 359.69 292.42"/><polyline class="cls-7" points="309.95 195.33 300.89 281.83 377.23 204.17"/><polyline class="cls-7" points="324.76 188.64 313.13 291.43 381.12 217.07"/><line class="cls-7" x1="337.97" y1="187.14" x2="327.71" y2="297.24"/><line class="cls-7" x1="375" y1="201.14" x2="372.9" y2="280.85"/><path class="cls-7" d="M359.44,92.4S344.91,117,345.45,121L323.38,92.52"/><line class="cls-7" x1="347.48" y1="85.66" x2="354.22" y2="101.57"/><path class="cls-7" d="M331.72,145l-11.54-9.81,2.65,19.08,19.11-20.63,8.11,9.78c-.15-6.48,12.47-18.8,12.47-18.8s2.19,15.63-.58,22"/><polyline class="cls-7" points="351.47 177.17 328.48 163.86 325.08 176.47 338.05 184.28 366.17 169.38 355.52 185.45"/><polyline class="cls-7" points="325.08 176.47 316.28 171.94 320.96 184.54"/><path class="cls-7" d="M341,171.08s14.86-24.61,21-24.45l-4.65,27.45,21.32-36.91"/><path class="cls-7" d="M328.48,163.86s-.55-7.44-23.81-24.71"/><path class="cls-7" d="M350.05,143.41s3.91,9.18,5.1,7.94"/><path class="cls-7" d="M335.51,140s-10.14-14.55-22.38-24.15"/><path class="cls-7" d="M334.72,107.13s2-22.61,3.68-25.15c0,0,14.55,21.83,13.07,24.67"/></svg>
