<svg id="Layer_10" data-name="Layer 10" xmlns="http://www.w3.org/2000/svg" width="1065" height="1030" viewBox="0 0 1065 1030"><defs><style>.cls-1{fill:#ffdbd4;}.cls-2{fill:#e8cc54;}.cls-3{fill:#a25554;}.cls-4,.cls-9{fill:#774343;}.cls-5{fill:#db9ca0;}.cls-6{fill:#fccbbf;}.cls-7{fill:#ec7277;}.cls-8{fill:#efa29b;}.cls-9{stroke:#774343;stroke-miterlimit:10;stroke-width:4px;}</style></defs><title>Artboard 4</title><rect class="cls-1" width="1065" height="1030"/><path class="cls-2" d="M539.78,289.67a56.18,56.18,0,0,0-21.15.75C470.34,301.15,284,355.76,277.85,560.57c-7.1,235.38,35.51,295.9,35.51,295.9s71,114.33,206,87.43S746.58,843,746.58,843s56.82-33.62,49.72-134.5C789.27,608.79,820.43,334.88,539.78,289.67Z"/><path class="cls-3" d="M531,342.74s-104.09,196-100.62,267.15c0,0-13.87,112.75,22.55,182.14s33,100.62,67.66,105.82,86.73-81.53,86.73-81.53,36.43-83.27,22.55-168.27S570.91,304.58,531,342.74Z"/><path class="cls-4" d="M531.47,368.74s-95.11,181.49-91.55,247.13c0,0-12.25,104.17,21.73,168s30.92,92.72,63,97.35,79.67-75.7,79.67-75.7,33.22-77.05,20-155.46S568.12,333.31,531.47,368.74Z"/><path class="cls-5" d="M536.57,368.88S450,563.58,455,603.52c0,0,76.55-108.17,81.54-103.17S609.8,595.2,609.8,616.84,564.86,363.89,536.57,368.88Z"/><path class="cls-6" d="M546.17,860.94c11.84-10.05,32.33-31.38,48-68.51a20,20,0,0,0,1.41-9.65c-.47-5,.26-15.75,7.61-37.81C614.79,710,619.78,705,614.79,683.4s1.66-26.62,1.66-46.59,3.33-26.63-13.31-51.59S559.87,527,558.21,513.66s-5-53.25-21.64-51.59c-13,1.3-22,30.1-25.24,42.58a19.51,19.51,0,0,1-5.65,9.42c-7.53,6.92-22.36,22.12-22.36,34.54,0,14.14-16.83,19.87-17.79,32.51a19.84,19.84,0,0,1-7.07,13.37c-6.34,5.45-13.72,14.15-11.75,24,3.33,16.64-6.66,26.63,0,46.6s-5,36.61,6.66,48.26c11.16,11.16-8.24,36.08,12.09,57.18a18.3,18.3,0,0,1,4.22,6.66c5.23,14.84,25.34,67.58,53.19,85.39A19.66,19.66,0,0,0,546.17,860.94Z"/><path class="cls-7" d="M542.13,854.14c8.85-6.63,30-25.2,46.35-61.38a39.35,39.35,0,0,0,3.44-16.31c0-5.3,1.31-15.05,7.08-32.36,10.68-32.06,15.26-36.64,10.68-56.48s1.53-24.42,1.53-42.74,3-24.42-12.21-47.32-39.69-53.42-41.21-65.64-4.58-48.84-19.85-47.31c-12.75,1.27-21.24,31.31-23.69,41.16a10.1,10.1,0,0,1-3.13,5.16c-6.15,5.46-22,20.74-22,33.05,0,13.63-17.05,18.74-16.34,31.64a10.05,10.05,0,0,1-4,8.47c-6.11,4.69-15.29,13.64-13.21,24,3.05,15.26-6.11,24.42,0,42.74s-4.58,33.58,6.1,44.26C472,725.5,453.45,749,473.7,768.51a10,10,0,0,1,2.46,3.9c4.36,12.64,26.15,71.7,56.15,83.09A10.26,10.26,0,0,0,542.13,854.14Z"/><path class="cls-8" d="M539.09,529a1.69,1.69,0,0,0-2.93.33c-6.37,15.38-40.94,100.38-39.53,130.11,1.56,32.74,7.8,106,15.59,130.95s14,67,24.94,62.35,45.21-146.53,40.53-173C573.23,654.43,553.11,548,539.09,529Z"/><ellipse class="cls-6" cx="536.57" cy="600.63" rx="18.31" ry="23.73"/><path class="cls-3" d="M542.56,693.24s-31.35-10.45-25.38,28.37c0,0-7.46,4.47-1.49,16.42s-17.92,6-3,28.36c0,0,10.45,23.89,11.95,37.33s7.46,20.9,7.46,20.9,22.4-38.82,25.38-58.23-9-34.33,0-37.32c0,0,4.48-11.94-9-14.93C548.53,714.14,557.49,700.7,542.56,693.24Z"/><path class="cls-9" d="M127.86,141.36a62,62,0,0,1,4.51-10.49,39.65,39.65,0,0,1,5.25-7.56,26.54,26.54,0,0,1,12.07-7.81,23.5,23.5,0,0,1,4.27-.73,9.9,9.9,0,0,1,4.88,1.22,13.77,13.77,0,0,1,5.61,5,21.16,21.16,0,0,1,2.69,5.86c.36,1.34.61,2.68.85,4a9.49,9.49,0,0,1-.12,3.17,2,2,0,0,1-2.07,1.83,2.37,2.37,0,0,1-2.44-1.58c-.25-1.1-.49-2.2-.74-3.3a23.85,23.85,0,0,0-1.58-4.75,10.52,10.52,0,0,0-2.56-3.54,7.4,7.4,0,0,0-2.32-1.59,4.28,4.28,0,0,0-2.44-.36,12.4,12.4,0,0,0-4.15,1.22,21,21,0,0,0-8,6.22,40.64,40.64,0,0,0-4.88,7.93,71.89,71.89,0,0,0-3.66,9.76c-.73,2.68-1.34,5.24-1.83,7.93-.24,1.7-.49,3.53-.73,5.24-.12,1.95-.25,3.91-.25,5.86a35.38,35.38,0,0,0,1.1,8.78,23.35,23.35,0,0,0,6.22,10.74,20.91,20.91,0,0,0,6.22,4.51,19.69,19.69,0,0,0,5.74,1.95c1.83.37,3.66.61,5.61.86a35,35,0,0,0,5.12-.13,39.79,39.79,0,0,0,10.74-2.92,30.57,30.57,0,0,0,5.49-3,20.3,20.3,0,0,0,3.05-2.56A19.68,19.68,0,0,1,181,181.5a2.33,2.33,0,0,1,2.2-.12,2.24,2.24,0,0,1,1.1,2.93,11.79,11.79,0,0,1-1.34,1.95,23.49,23.49,0,0,1-6.47,5.61,42.27,42.27,0,0,1-7.44,3.54,36.77,36.77,0,0,1-6.59,1.7,33.08,33.08,0,0,1-3.54.49,29.82,29.82,0,0,1-4.63,0,38.06,38.06,0,0,1-9.76-1.58,28.77,28.77,0,0,1-11.35-7c-6-5.61-8.78-13.17-9.39-21.35-.12-1.46-.12-2.19-.12-3.78A69.23,69.23,0,0,1,127.86,141.36Z"/><path class="cls-9" d="M212,157.22c-2.56,1.1-5.12,2.32-7.56,3.66a38.43,38.43,0,0,0-4.39,2.81c-.37.12-.49.36-.61.73-.37,2.32-.73,4.64-1.1,7.08-.37,1.83-.61,3.78-.85,5.73-.25,1.46-.37,2.81-.49,4.27s-.37,3.17-.49,4.76c0,1.22-.12,2.44-.12,3.66-.12,2.56-.25,5.12-.25,7.68a12,12,0,0,0-.12,2.08,2.73,2.73,0,0,1-2.32,2.56,3.41,3.41,0,0,1-3-.86,3.88,3.88,0,0,1-.73-1.58V198c0-1.34.13-2.69.13-4,.12-1.58.24-3.05.48-4.51s.25-3.17.49-4.88c.12-2.07.37-4.15.61-6.22s.37-3.91.61-5.86c.37-2.8.73-5.61,1.1-8.29s.85-5.25,1.22-7.93c.36-2.32.85-4.76,1.22-7.08.73-4.15,1.46-8.29,2.32-12.32.85-3.42,1.58-6.71,2.68-10a19.16,19.16,0,0,1,2.2-5.13,7,7,0,0,1,1.34-1.83,3.22,3.22,0,0,1,2-1.1,3.38,3.38,0,0,1,2.93,1c.12.12.36.37.61.61a51.65,51.65,0,0,1,6,9.15A155.12,155.12,0,0,1,223.13,147c1.59,4.51,3.18,9.14,4.64,13.66,2.07,5.73,4,11.47,6.34,17.08a96.39,96.39,0,0,0,5.13,11.34c.61,1.22,1.22,2.32,1.83,3.42a12.49,12.49,0,0,1,.85,1.83,2.53,2.53,0,0,1-.73,2.56,2.62,2.62,0,0,1-2.81.24,5.12,5.12,0,0,1-1.46-1.34,50.94,50.94,0,0,1-3-4.15,62.14,62.14,0,0,1-5.49-10.12c-1.34-3.05-2.56-6.34-3.66-9.52-1.34-3.66-2.56-7.19-3.9-10.85a37,37,0,0,0-2.44-6.23C216.06,155.76,214.11,156.37,212,157.22Zm4.52-7.93c-2-5.36-4.27-10.73-6.71-15.86-.86-1.58-1.59-3.17-2.56-4.63,0-.12-.13-.25-.25-.37v.37c-.49,1.71-.85,3.54-1.22,5.24-.61,2.69-1.22,5.37-1.83,8.18-.85,4-1.71,8.05-2.56,12.2v.12a60.5,60.5,0,0,1,15.13-4.88Z"/><path class="cls-9" d="M282.3,176.13c2.08-8.17,5-16,7.69-24,1.46-4.27,2.8-8.54,4.27-12.93,1.22-3.78,2.07-8,3.54-11.84a2.54,2.54,0,0,1,2.07-1.58,2.39,2.39,0,0,1,2.32,1.34c1.46,2.68,2.07,6.22,3.05,9.15l2.93,9.52c2.07,6.46,4.14,12.93,6.34,19.39a180.41,180.41,0,0,0,6.59,17.69,82,82,0,0,0,4.15,8c1.46,2.44,4,4.88,5,7.69a2.18,2.18,0,0,1-.49,2.07c-.25.12-.37.25-.61.37a.87.87,0,0,1-.73.36,3.53,3.53,0,0,1-1.47-.48c-4.27-2.08-7.07-8.3-8.9-12.08a114.2,114.2,0,0,1-7-16.35C306.82,161,304,149.05,299.75,137.7c-2.81,7.2-4.88,14.76-7.2,22.21l-3.29,11c-1,3.78-2.2,7.93-1.71,11.83a2.9,2.9,0,0,1-2.68,3.42h-.37c-5.37-.25-7.56-7.45-9-11.47-2.19-5.74-4-11.59-5.85-17.45-1.83-6.1-3.54-12.2-5.37-18.3-1.59-5-2.81-11.95-6.22-16.1-2.57,5.61-2.81,12.32-3.3,18.18a175.76,175.76,0,0,0-.85,19.52c.12,6.71.61,13.42,1.22,20a57,57,0,0,1,.49,9c-.13,2.44,0,6.83-1.71,8.78a3,3,0,0,1-1.34.74,1.59,1.59,0,0,1-1.47,0,2.19,2.19,0,0,1-1.46-2.2c-.25-3.05.49-6.22.36-9.39s-.61-6.59-1-9.88a186.19,186.19,0,0,1-1.22-20.13,171.73,171.73,0,0,1,1.34-20.86c.85-6.59,1.83-14,5.73-19.65a2.23,2.23,0,0,1,2.32-1c5.25.85,7.69,7.07,9.15,11.59,1.71,5.49,3.3,11.1,4.88,16.71,3.05,10.74,6.34,21.59,11,31.84Z"/><path class="cls-9" d="M325.86,123.19a9.13,9.13,0,0,1-1.35.85,3.11,3.11,0,0,1-3.65-.24c-.61-.25-.86-1.1-1-1.59a2.85,2.85,0,0,1-.12-1.71,4.58,4.58,0,0,1,1.7-3.17c1.71-1.22,3.91-1.46,5.86-1.71a41.34,41.34,0,0,1,6.71-.24,45.32,45.32,0,0,1,12.81,2.32,36.67,36.67,0,0,1,18.91,13.9,22.18,22.18,0,0,1,4,9.76,15.61,15.61,0,0,1-3.53,12.93,25.2,25.2,0,0,1-9.64,6.59,36.56,36.56,0,0,1-6,2c-2.19.49-4.39.86-6.59,1.22-1.46.13-2.92.25-4.51.37s-2.93-.12-4.51-.12c0,4.51.12,9,.24,13.42.12,2.19.24,4.51.37,6.71l.36,3.29a13.39,13.39,0,0,0,.61,3.17c.12.25.12.73.49.86h.37a2.09,2.09,0,0,1,0,3.9,4.56,4.56,0,0,1-5-1.34,10.67,10.67,0,0,1-2.56-5.25,37,37,0,0,1-.61-6.46c-.12-4.52-.24-9-.24-13.54-.12-1.71-.12-3.54-.12-5.25a.47.47,0,0,0-.12-.37,3.2,3.2,0,0,1-.13-5.12c.13-.12.13-.12.13-.37-.13-4.51-.25-9-.49-13.54s-.49-8.9-.74-13.29c-.12-1.35-.24-2.69-.36-4.15-.12-.61-.12-1.34-.24-2.08a11.31,11.31,0,0,1,.12-2C326.71,123.06,326.22,123.06,325.86,123.19ZM334.15,136c.25,4.51.37,9,.49,13.54,0,1.46.12,2.92.12,4.39,0,.73.12,1.46.12,2.07v2.2a40.28,40.28,0,0,0,6.59-.12,38.24,38.24,0,0,0,6.47-1c4-.85,8.05-2.07,11.34-4.64a15.68,15.68,0,0,0,2.44-2.56,8.84,8.84,0,0,0,1.83-7.32c-.61-3.9-2.93-7.44-5.61-10.24a30.39,30.39,0,0,0-9.27-6.59,37,37,0,0,0-15.49-3.17C333.54,127,333.91,131.48,334.15,136Z"/><path class="cls-9" d="M455.17,176.13c2.08-8.17,5-16,7.69-24,1.46-4.27,2.81-8.54,4.27-12.93,1.22-3.78,2.07-8,3.54-11.84a2.56,2.56,0,0,1,2.07-1.58,2.39,2.39,0,0,1,2.32,1.34c1.46,2.68,2.07,6.22,3.05,9.15l2.93,9.52c2.07,6.46,4.14,12.93,6.34,19.39A180.41,180.41,0,0,0,494,182.84a82,82,0,0,0,4.15,8c1.46,2.44,4,4.88,5,7.69a2.18,2.18,0,0,1-.49,2.07c-.24.12-.37.25-.61.37a.87.87,0,0,1-.73.36,3.53,3.53,0,0,1-1.47-.48c-4.27-2.08-7.07-8.3-8.9-12.08a114.2,114.2,0,0,1-7-16.35c-4.26-11.47-7.07-23.42-11.34-34.77-2.81,7.2-4.88,14.76-7.2,22.21l-3.29,11c-1,3.78-2.2,7.93-1.71,11.83a2.9,2.9,0,0,1-2.68,3.42h-.37c-5.37-.25-7.56-7.45-9-11.47-2.19-5.74-4-11.59-5.85-17.45-1.83-6.1-3.54-12.2-5.37-18.3-1.59-5-2.81-11.95-6.22-16.1-2.57,5.61-2.81,12.32-3.3,18.18a175.76,175.76,0,0,0-.85,19.52c.12,6.71.61,13.42,1.22,20a57,57,0,0,1,.49,9c-.13,2.44,0,6.83-1.71,8.78a3,3,0,0,1-1.34.74,1.59,1.59,0,0,1-1.47,0,2.19,2.19,0,0,1-1.46-2.2c-.24-3.05.49-6.22.37-9.39s-.61-6.59-1-9.88a186.19,186.19,0,0,1-1.22-20.13A171.73,171.73,0,0,1,422,136.61c.86-6.59,1.83-14,5.74-19.65a2.21,2.21,0,0,1,2.31-1c5.25.85,7.69,7.07,9.15,11.59,1.71,5.49,3.3,11.1,4.88,16.71,3.05,10.74,6.35,21.59,11,31.84Z"/><path class="cls-9" d="M504,162.47a1.93,1.93,0,0,0,.73-1,177.08,177.08,0,0,1,7.81-23.66,19.85,19.85,0,0,1,2.68-5.37,2,2,0,0,1,2.44-.73,1.92,1.92,0,0,1,1,2.31c-2.2,8.06-4.4,16.11-6.71,24.28v.24l4-1.46a86.63,86.63,0,0,1,18.42-3.66,36.47,36.47,0,0,1,8.18-.37,2.68,2.68,0,0,1,2.68,2.2c0,1.46-1.1,2.2-2.93,2.32a84.52,84.52,0,0,0-26.35,5.49c-2.07.85-4,1.95-6,2.93-1.09,4.51-2.56,9-2.19,13.78a11.39,11.39,0,0,0,9.88,11,20.34,20.34,0,0,0,6.71-.49c7.93-1.22,15.37-4,22.69-7.32a17.2,17.2,0,0,1,2.07-1.09,2.83,2.83,0,0,1,2.93.36,2.09,2.09,0,0,1,.61,2.32,3.65,3.65,0,0,1-1.46,1.83,53.55,53.55,0,0,1-10.25,5.24A73.71,73.71,0,0,1,521.67,197a17.88,17.88,0,0,1-20.26-16.1A38.92,38.92,0,0,1,503,168a5,5,0,0,1,.12-.61C501.78,165.52,502,163.57,504,162.47ZM538.5,124c-6.59.24-13,.73-19.4,2.68-4.14,1.22-7.68,3.54-11.22,5.74a10.82,10.82,0,0,1-1.95,1.1,2.8,2.8,0,0,1-2.93-1.35,2.52,2.52,0,0,1,.73-3.29,34.49,34.49,0,0,1,9.64-6.47,46.87,46.87,0,0,1,13.42-3.78,53.57,53.57,0,0,1,14.64-.12,18.65,18.65,0,0,1,7.07,2.32c1.1.61,1.47,1.34,1.22,2.19s-.85,1.35-2.07,1.47h-1.34A54.24,54.24,0,0,0,538.5,124Z"/><path class="cls-9" d="M566.93,165.4c.24,5.61.61,11.22,1,16.71.25,2.81.49,5.49.73,8.3s.86,6,.37,8.53a1.69,1.69,0,0,1-1.59,1.47,1.9,1.9,0,0,1-1.95-1c-2.44-4.88-2.8-11.34-3.29-16.71a184.36,184.36,0,0,1-1.34-18.42c-.25-6.35,0-12.81.12-19.28l.36-9.88c.13-3.17,0-6.59.86-9.64a2.59,2.59,0,0,1,2.07-2.07,2.77,2.77,0,0,1,3.3,2.07,1.6,1.6,0,0,0,.12.74,2.52,2.52,0,0,1,2.07.36c4.39,3.05,7.2,8.79,9.76,13.3,3,5.25,5.86,10.61,8.78,16,5.86,10.86,12.08,21.59,20.13,31,0-11.84-.85-23.67-1.83-35.38-.48-5.73-1-11.59-1.46-17.32-.24-3-.49-6.1-.73-9.28-.25-2.8-.73-5.85-.25-8.66A3,3,0,0,1,610,116c.73,2.8-.37,5.73-.12,8.66.12,2.68.36,5.49.61,8.17.73,6.47,1.46,13.06,2.07,19.52a351.92,351.92,0,0,1,2.2,39.28,3.17,3.17,0,0,1-2.69,3.18c-6.1,1-10.49-6.1-13.54-10.13a180.54,180.54,0,0,1-11-17.2c-6.71-11.71-12.68-23.79-19.88-35.13C567.17,143.32,566.56,154.42,566.93,165.4Z"/><path class="cls-9" d="M651.83,121c-.85.61-1.7,1.34-2.44,2a37.92,37.92,0,0,0-4.39,4.39,57.39,57.39,0,0,0-7,10.13,52.07,52.07,0,0,0-5.61,25c.12,7.93,2.19,16.35,7.44,22.57a23.42,23.42,0,0,0,9,6.71A22.68,22.68,0,0,0,661,193c7.69-1.47,12.45-7.93,15.25-14.89a47.89,47.89,0,0,0,3.3-12.44,61.33,61.33,0,0,0,.24-13.42c-.73-8.29-2.56-17.08-6.95-24.28a41.94,41.94,0,0,0-7.69-9.63,14.26,14.26,0,0,0-2.07-1.71c-.86-.61-1.71-1.1-2.44-1.71a2.52,2.52,0,0,1-.12-4c1.58-1.21,3.66,0,5,1a34.68,34.68,0,0,1,4.63,3.78,54.86,54.86,0,0,1,7.57,9.88c4.39,7.45,6.34,16.35,7.19,24.77a80.6,80.6,0,0,1,.37,13.3,68.39,68.39,0,0,1-2.56,12.81c-2.32,7.44-6.35,15-13.18,19.27s-16.34,4.39-23.66,1.22A31.21,31.21,0,0,1,630,180.4a50.73,50.73,0,0,1-3.3-25.5A53.35,53.35,0,0,1,634,132.7a55.47,55.47,0,0,1,6.71-9.15,42.4,42.4,0,0,1,8.66-7.44c2.69-1.59,7.32-2.56,9,1a13,13,0,0,1,.73,5.73c0,1.46-.12,3.9-2.07,3.78-1.59,0-1.71-1.46-1.83-2.56a13.6,13.6,0,0,0-.49-2.2,5.12,5.12,0,0,0-.61-2A4.54,4.54,0,0,0,651.83,121Z"/><path class="cls-9" d="M694.29,123.19A8.41,8.41,0,0,1,693,124a3.13,3.13,0,0,1-3.66-.24c-.61-.25-.86-1.1-1-1.59a2.85,2.85,0,0,1-.12-1.71,4.56,4.56,0,0,1,1.71-3.17c1.71-1.22,3.9-1.46,5.85-1.71a41.38,41.38,0,0,1,6.71-.24,45.32,45.32,0,0,1,12.81,2.32,36.67,36.67,0,0,1,18.91,13.9,22.2,22.2,0,0,1,4,9.76,15.65,15.65,0,0,1-3.54,12.93,25.12,25.12,0,0,1-9.64,6.59,36.25,36.25,0,0,1-6,2c-2.19.49-4.39.86-6.58,1.22-1.47.13-2.93.25-4.52.37s-2.92-.12-4.51-.12c0,4.51.12,9,.24,13.42.12,2.19.25,4.51.37,6.71l.37,3.29a12.91,12.91,0,0,0,.61,3.17c.12.25.12.73.48.86h.37a2.09,2.09,0,0,1,0,3.9,4.54,4.54,0,0,1-5-1.34,10.58,10.58,0,0,1-2.56-5.25,37,37,0,0,1-.61-6.46c-.13-4.52-.25-9-.25-13.54-.12-1.71-.12-3.54-.12-5.25a.47.47,0,0,0-.12-.37,3.2,3.2,0,0,1-.12-5.12c.12-.12.12-.12.12-.37-.12-4.51-.25-9-.49-13.54s-.49-8.9-.73-13.29c-.12-1.35-.25-2.69-.37-4.15-.12-.61-.12-1.34-.24-2.08a11.31,11.31,0,0,1,.12-2C695.14,123.06,694.66,123.06,694.29,123.19ZM702.58,136c.25,4.51.37,9,.49,13.54,0,1.46.13,2.92.13,4.39,0,.73.12,1.46.12,2.07v2.2a40.32,40.32,0,0,0,6.59-.12,38.13,38.13,0,0,0,6.46-1c4-.85,8-2.07,11.35-4.64a16.58,16.58,0,0,0,2.44-2.56,8.91,8.91,0,0,0,1.83-7.32c-.61-3.9-2.93-7.44-5.62-10.24a30.39,30.39,0,0,0-9.27-6.59,37,37,0,0,0-15.49-3.17C702,127,702.34,131.48,702.58,136Z"/><path class="cls-9" d="M769.07,121c-.85.61-1.7,1.34-2.44,2a37.92,37.92,0,0,0-4.39,4.39,57.39,57.39,0,0,0-7,10.13,52.07,52.07,0,0,0-5.61,25c.12,7.93,2.19,16.35,7.44,22.57a23.42,23.42,0,0,0,9,6.71A22.68,22.68,0,0,0,778.22,193c7.69-1.47,12.45-7.93,15.25-14.89a47.89,47.89,0,0,0,3.3-12.44,61.33,61.33,0,0,0,.24-13.42c-.73-8.29-2.56-17.08-7-24.28a41.94,41.94,0,0,0-7.69-9.63,14.26,14.26,0,0,0-2.07-1.71c-.86-.61-1.71-1.1-2.44-1.71a2.52,2.52,0,0,1-.12-4c1.58-1.21,3.66,0,5,1a34.68,34.68,0,0,1,4.63,3.78,54.86,54.86,0,0,1,7.57,9.88c4.39,7.45,6.34,16.35,7.19,24.77a80.6,80.6,0,0,1,.37,13.3,68.39,68.39,0,0,1-2.56,12.81c-2.32,7.44-6.35,15-13.18,19.27s-16.34,4.39-23.66,1.22a31.21,31.21,0,0,1-15.86-16.47,50.73,50.73,0,0,1-3.3-25.5,53.35,53.35,0,0,1,7.32-22.2,55.47,55.47,0,0,1,6.71-9.15,42.4,42.4,0,0,1,8.66-7.44c2.69-1.59,7.32-2.56,9,1a13,13,0,0,1,.73,5.73c0,1.46-.12,3.9-2.07,3.78-1.59,0-1.71-1.46-1.83-2.56a13.6,13.6,0,0,0-.49-2.2,5.12,5.12,0,0,0-.61-2A4.54,4.54,0,0,0,769.07,121Z"/><path class="cls-9" d="M819.58,200.29c-6.83-3.18-8.05-12.2-8.29-18.91-.25-8,1-16.11,2-24.16s2.07-16.1,3.53-24.15c.86-5,1.59-18.55,8.67-19a2.12,2.12,0,0,1,1.46,3.78c-2.44,1.83-2.81,5-3.29,7.81-.49,3.29-1,6.46-1.47,9.76l-2.56,19.76c-.73,7.2-1.83,14.27-2.07,21.47-.25,4.88-.86,16.22,5.12,18.3,4.76,1.58,10.86-2.32,14.88-4.39,5.13-2.56,10-5.61,15.13-8.05a2.39,2.39,0,0,1,3.42,1.58,2.29,2.29,0,0,1-.37,1.83c-1.58,2.32-3.9,3.66-6.22,4.88-2.68,1.59-5.37,3.17-8.05,4.64-5,2.68-10.86,6-16.72,6A12.53,12.53,0,0,1,819.58,200.29Z"/><path class="cls-9" d="M863.13,162.47a2,2,0,0,0,.74-1,178.48,178.48,0,0,1,7.8-23.66,20.17,20.17,0,0,1,2.69-5.37,2,2,0,0,1,2.44-.73,1.91,1.91,0,0,1,1,2.31c-2.19,8.06-4.39,16.11-6.71,24.28v.24l4-1.46a86.63,86.63,0,0,1,18.42-3.66,36.38,36.38,0,0,1,8.17-.37,2.69,2.69,0,0,1,2.69,2.2c0,1.46-1.1,2.2-2.93,2.32a84.52,84.52,0,0,0-26.35,5.49c-2.07.85-4,1.95-6,2.93-1.1,4.51-2.56,9-2.19,13.78a11.39,11.39,0,0,0,9.88,11,20.34,20.34,0,0,0,6.71-.49c7.93-1.22,15.37-4,22.69-7.32a17.2,17.2,0,0,1,2.07-1.09,2.83,2.83,0,0,1,2.93.36,2.11,2.11,0,0,1,.61,2.32,3.65,3.65,0,0,1-1.46,1.83,53.84,53.84,0,0,1-10.25,5.24A73.68,73.68,0,0,1,880.82,197a17.87,17.87,0,0,1-20.25-16.1A38.92,38.92,0,0,1,862.16,168a5,5,0,0,1,.12-.61C860.94,165.52,861.18,163.57,863.13,162.47ZM897.66,124c-6.59.24-13.06.73-19.4,2.68-4.15,1.22-7.68,3.54-11.22,5.74a10.82,10.82,0,0,1-1.95,1.1,2.8,2.8,0,0,1-2.93-1.35,2.52,2.52,0,0,1,.73-3.29,34.49,34.49,0,0,1,9.64-6.47A46.87,46.87,0,0,1,886,118.67a53.57,53.57,0,0,1,14.64-.12,18.65,18.65,0,0,1,7.07,2.32c1.1.61,1.47,1.34,1.22,2.19s-.85,1.35-2.07,1.47h-1.34A54.33,54.33,0,0,0,897.66,124Z"/><path class="cls-9" d="M939.5,126.24c-1.22.24-2.44.36-3.66.61a41.81,41.81,0,0,0-4.14,1c-2.32.61-4.64,1.1-7,1.71-2,.49-3.78,1-5.73,1.46a2.28,2.28,0,0,1-2-.48,3.6,3.6,0,0,1-1.1-4.15A2.39,2.39,0,0,1,917.3,125q5.49-1.65,11-2.93c1.22-.37,2.56-.61,3.78-1s2.56-.49,3.91-.61,2.44-.36,3.66-.49,2.07-.12,3-.24,2-.12,2.8-.24a18.69,18.69,0,0,1,2.69-.25c1-.12,2-.36,2.92-.49a22.2,22.2,0,0,0,2.81-.24c1.22-.12,2.56-.24,3.78-.37,1-.12,2-.12,2.81-.24a53.71,53.71,0,0,0,6.46-1,27.41,27.41,0,0,0,7-2.44l1.09-.36a2.07,2.07,0,0,1,2.08,1,2,2,0,0,1-.25,2.32,18.27,18.27,0,0,1-1.58,1.59,21.77,21.77,0,0,1-7.44,3.9,36,36,0,0,1-5,1.1c-1.83.24-3.66.49-5.49.61-1.22.12-2.43.12-3.78.24l-3.66.37a22,22,0,0,1-2.8.24c-.61.13-1.34.13-2.08.25,0,.12,0,.12.13.24a8.1,8.1,0,0,1,.48,2.56c.25,3.42.37,6.84.37,10.37v7.81c.12,2.08.12,4.27.12,6.34.12,3.05.24,6.1.37,9.28,0,3.41.12,7,.24,10.49,0,1.83.12,3.66.25,5.49a61,61,0,0,0,.48,6.59q.55,4.38,1.47,8.78a7.23,7.23,0,0,1,.24,2.32,3.11,3.11,0,0,1-2.56,2.92,2.94,2.94,0,0,1-3.17-1.34,4.65,4.65,0,0,1-1.1-2.19c-.37-1.59-.73-3-1-4.64s-.48-3.05-.73-4.63c-.12-1.35-.24-2.57-.36-3.91-.25-3.41-.37-6.83-.37-10.37v-12.2c0-3.17-.12-6.34-.12-9.51,0-4.76.12-9.52.12-14.15,0-2.57.12-5,.24-7.57a10.85,10.85,0,0,1,.25-2,.45.45,0,0,0,.12-.37A2.87,2.87,0,0,1,939.5,126.24Z"/></svg>