<svg id="Layer_1" data-name="Layer 1" xmlns="http://www.w3.org/2000/svg" xmlns:xlink="http://www.w3.org/1999/xlink" width="22mm" height="20.54mm" viewBox="0 0 62.37 58.23"><defs><style>.cls-1{fill:none;}.cls-2{clip-path:url(#clip-path);}.cls-3,.cls-4{fill:#fff;}.cls-3,.cls-6{fill-rule:evenodd;}.cls-5{clip-path:url(#clip-path-2);}.cls-6{fill:#ffe45c;}</style><clipPath id="clip-path"><rect class="cls-1" x="17.06" y="14.93" width="25.84" height="25.84"/></clipPath><clipPath id="clip-path-2"><rect class="cls-1" x="17.12" y="16.19" width="25.84" height="25.84"/></clipPath></defs><title>facebookburger</title><g class="cls-2"><g id="facebook"><rect id="Rectangle_392" data-name="Rectangle 392" class="cls-1" x="17.06" y="14.93" width="25.84" height="25.84"/><path id="Path_1" data-name="Path 1" class="cls-3" d="M33,42.08V30.31h4l.57-4.59H33V22.85c0-1.3.43-2.3,2.3-2.3h2.44V16.39c-.58,0-2-.15-3.59-.15-3.45,0-5.89,2.15-5.89,6v3.45h-4v4.59h4V42.08Z"/></g></g><circle class="cls-4" cx="31.18" cy="29.12" r="19.33"/><g class="cls-5"><g id="facebook-2" data-name="facebook"><rect id="Rectangle_392-2" data-name="Rectangle 392" class="cls-1" x="17.12" y="16.19" width="25.84" height="25.84"/><path id="Path_1-2" data-name="Path 1" class="cls-6" d="M33.08,43.35V31.58h4l.57-4.6H33.08V24.11c0-1.29.43-2.29,2.3-2.29h2.44V17.65c-.58,0-2-.14-3.59-.14-3.45,0-5.89,2.15-5.89,6V27h-4v4.6h4V43.35Z"/></g></g></svg>
