<svg id="Layer_1" data-name="Layer 1" xmlns="http://www.w3.org/2000/svg" width="25.24mm" height="23.44mm" viewBox="0 0 71.55 66.44"><defs><style>.cls-1{fill:#fff099;}.cls-2{fill:#fff;fill-rule:evenodd;}</style></defs><title>instagram</title><circle class="cls-1" cx="38.26" cy="28.8" r="19.33"/><path id="Path_3" data-name="Path 3" class="cls-2" d="M38.66,19.5a34.74,34.74,0,0,1,4.33.12A5.5,5.5,0,0,1,45,20a4.23,4.23,0,0,1,2,2.05,5.5,5.5,0,0,1,.36,2c0,1.08.12,1.44.12,4.33a31.32,31.32,0,0,1-.12,4.33,5.45,5.45,0,0,1-.36,2,4.19,4.19,0,0,1-2,2,5.54,5.54,0,0,1-2,.36c-1.08,0-1.44.12-4.33.12a34.79,34.79,0,0,1-4.33-.12,5.54,5.54,0,0,1-2-.36,4.23,4.23,0,0,1-2-2,5.66,5.66,0,0,1-.36-2c0-1.08-.12-1.45-.12-4.33a34.9,34.9,0,0,1,.12-4.34,5.7,5.7,0,0,1,.36-2,4.4,4.4,0,0,1,.84-1.2,2.05,2.05,0,0,1,1.2-.84,5.54,5.54,0,0,1,2-.36,34.79,34.79,0,0,1,4.33-.12m0-1.92a34.81,34.81,0,0,0-4.45.11,7.49,7.49,0,0,0-2.65.48,5.07,5.07,0,0,0-3.13,3.13A5.59,5.59,0,0,0,28,24a36.91,36.91,0,0,0-.12,4.46A36.75,36.75,0,0,0,28,32.86a7.53,7.53,0,0,0,.48,2.65,4.62,4.62,0,0,0,1.21,1.92,4.72,4.72,0,0,0,1.92,1.21,7.53,7.53,0,0,0,2.65.48,36.75,36.75,0,0,0,4.45.12,36.69,36.69,0,0,0,4.45-.12,7.45,7.45,0,0,0,2.65-.48,5.07,5.07,0,0,0,3.13-3.13,7.45,7.45,0,0,0,.48-2.65c0-1.2.12-1.56.12-4.45A36.75,36.75,0,0,0,49.37,24a7.49,7.49,0,0,0-.48-2.65,5.13,5.13,0,0,0-3.13-3.13,7.49,7.49,0,0,0-2.65-.48,33,33,0,0,0-4.45-.12m0,5.29a5.45,5.45,0,0,0-5.54,5.36v.18a5.54,5.54,0,1,0,5.54-5.54h0m0,9.15a3.55,3.55,0,0,1-3.61-3.48v-.13a3.54,3.54,0,0,1,3.48-3.61h.13a3.53,3.53,0,0,1,3.61,3.47v.14A3.55,3.55,0,0,1,38.79,32h-.13m5.78-10.71a1.33,1.33,0,0,0-1.33,1.32,1.33,1.33,0,0,0,2.65,0h0a1.34,1.34,0,0,0-1.32-1.32"/></svg>
