<svg id="Layer_1" data-name="Layer 1" xmlns="http://www.w3.org/2000/svg" width="24.54mm" height="23.44mm" viewBox="0 0 69.56 66.44"><defs><style>.cls-1{fill:#fff;}.cls-2{fill:#ffe45c;fill-rule:evenodd;}</style></defs><title>instagramburger</title><circle class="cls-1" cx="30.07" cy="37.33" r="19.33"/><path id="Path_3" data-name="Path 3" class="cls-2" d="M30.47,28a34.74,34.74,0,0,1,4.33.12,5.54,5.54,0,0,1,2.05.36,4.19,4.19,0,0,1,2,2,5.45,5.45,0,0,1,.36,2c0,1.09.12,1.45.12,4.33a34.9,34.9,0,0,1-.12,4.34,5.49,5.49,0,0,1-.36,2,4.23,4.23,0,0,1-2,2,5.75,5.75,0,0,1-2.05.36c-1.08,0-1.44.12-4.33.12a34.74,34.74,0,0,1-4.33-.12,5.75,5.75,0,0,1-2.05-.36,4.23,4.23,0,0,1-2-2,5.7,5.7,0,0,1-.36-2c0-1.09-.12-1.45-.12-4.34a34.79,34.79,0,0,1,.12-4.33,5.66,5.66,0,0,1,.36-2,4.45,4.45,0,0,1,.84-1.21,2,2,0,0,1,1.2-.83,5.54,5.54,0,0,1,2.05-.36A31.32,31.32,0,0,1,30.47,28m0-1.93a34.81,34.81,0,0,0-4.45.12,7.27,7.27,0,0,0-2.65.48,5.08,5.08,0,0,0-3.13,3.12,5.49,5.49,0,0,0-.48,2.65,36.75,36.75,0,0,0-.12,4.45,36.86,36.86,0,0,0,.12,4.46A7.43,7.43,0,0,0,20.24,44a5.07,5.07,0,0,0,3.13,3.13,7.5,7.5,0,0,0,2.65.49,36.75,36.75,0,0,0,4.45.12,36.69,36.69,0,0,0,4.45-.12,7.46,7.46,0,0,0,2.65-.49A5,5,0,0,0,40.7,44a7.49,7.49,0,0,0,.48-2.65c0-1.2.12-1.56.12-4.45a36.69,36.69,0,0,0-.12-4.45,7.45,7.45,0,0,0-.48-2.65,5.07,5.07,0,0,0-3.13-3.13,7.27,7.27,0,0,0-2.65-.48,34.77,34.77,0,0,0-4.45-.13m0,5.3a5.45,5.45,0,0,0-5.54,5.36v.18a5.54,5.54,0,1,0,5.54-5.54h0m0,9.14a3.54,3.54,0,0,1-3.61-3.47v-.14a3.55,3.55,0,0,1,3.48-3.61h.13a3.55,3.55,0,0,1,3.61,3.48v.13a3.54,3.54,0,0,1-3.48,3.61h-.13m5.78-10.71a1.33,1.33,0,1,0,1.32,1.33h0a1.35,1.35,0,0,0-1.32-1.33"/></svg>
