<svg xmlns="http://www.w3.org/2000/svg" width="464" height="538" viewBox="0 0 464 538"><defs><style>.cls-1{fill:#e54a98;}.cls-2{fill:#774343;}.cls-3{fill:#bc6b64;}.cls-4{fill:#b74744;}.cls-5{fill:#db9ca0;}.cls-6{fill:#a25554;}.cls-7{fill:#f4e92a;stroke:#e8cc54;stroke-miterlimit:10;stroke-width:4px;}</style></defs><title>kusse2</title><g id="Layer_9" data-name="Layer 9"><circle class="cls-1" cx="215.95" cy="85.07" r="15.07"/><path class="cls-1" d="M198.43,95.79c-3.7,12.36-16,39.13-55.31,52.79a26.57,26.57,0,0,0-13.06,9.88c-7,10-14.26,28.82,4.35,51.82a4.72,4.72,0,0,1-.26,6.2c-16.1,17.07-88.62,101.94,11.66,150.08a4.74,4.74,0,0,1,2.47,5.7c-5.24,16.38-18.6,79,81.78,83.24,113.16,4.75,89-83.35,88-87a2.17,2.17,0,0,1-.07-.24c-.49-2.16-6.95-31.35,7.57-31.35,14.86,0,66.34-84.68-16.44-133.47a4.72,4.72,0,0,1-2-5.85c5.86-14.57,22.14-67.31-39.7-87.35a72.81,72.81,0,0,0-15.85-3c-4.24-.38-11.48-3.1-17.81-15.65a4.76,4.76,0,0,0-7.9-1c-3.75,4.61-10.25,8.48-20.49,2.52A4.72,4.72,0,0,0,198.43,95.79Z"/><path class="cls-2" d="M204.72,97.23s-4.25,38.84-52.05,55.22a16.47,16.47,0,0,0-7.41,5.13c-6.76,8.2-18.36,28.51,3.74,54,0,0-93.61,93.61,11.14,142.64,0,0-31.2,75.78,71.32,80.24s78-80.24,78-80.24-6.69-29,6.69-29S376.33,245,298.33,200.44c0,0,31.58-65.28-38.29-85.31a39.55,39.55,0,0,0-9-1.34c-4.37-.2-13.14-3.24-19.58-22.56C231.46,91.23,224.78,114.37,204.72,97.23Z"/><path class="cls-3" d="M223.89,108.82s-83.6,92.63-63.27,176.23c0,0,27.12,124.27,79.08,142.35,0,0,67.79-79.08,58.75-158.16S260,133.67,223.89,108.82Z"/><path class="cls-1" d="M223.15,146.5S155.91,221,172.26,288.25c0,0,21.81,99.95,63.61,114.49,0,0,54.52-63.6,47.25-127.21S252.22,166.49,223.15,146.5Z"/><path class="cls-4" d="M222.15,165.49S166,227.69,179.67,283.82c0,0,18.21,83.44,53.1,95.58,0,0,45.51-53.1,39.44-106.2S246.42,182.18,222.15,165.49Z"/><path class="cls-5" d="M224.44,204.28S187.55,245.15,196.52,282c0,0,12,54.83,34.89,62.81,0,0,29.91-34.89,25.92-69.78S240.39,215.25,224.44,204.28Z"/><path class="cls-6" d="M224.22,212.3s31.38,52.11,4.22,125.93C228.44,338.23,209.46,278,224.22,212.3Z"/><path class="cls-7" d="M218.82,186.31s-14.54,16.24,2.56,31.64,25.66-21.38,10.27-31.64h0s12,21.38,0,31.64c0,0-8.56,3.42-12.83-6.84s-.43-22.11.64-22.17-.64-2.63-.64-2.63"/><ellipse class="cls-2" cx="224.18" cy="184.35" rx="6.28" ry="7.54"/></g></svg>
