<svg xmlns="http://www.w3.org/2000/svg" xmlns:xlink="http://www.w3.org/1999/xlink" width="375" height="733" viewBox="0 0 375 733">
  <defs>
    <clipPath id="clip-path">
      <rect width="16" height="16" fill="none"/>
    </clipPath>
    <clipPath id="clip-path-2">
      <rect width="340.328" height="16" fill="none"/>
    </clipPath>
    <clipPath id="clip-path-3">
      <path id="Shape" d="M338.667-26.667h16.667A2.667,2.667,0,0,1,358-24v6h0a2.667,2.667,0,0,1-2.667,2.667H338.667A2.667,2.667,0,0,1,336-18v-6h0A2.667,2.667,0,0,1,338.667-26.667Z" transform="translate(-336 26.667)" fill="none" clip-rule="evenodd"/>
    </clipPath>
    <clipPath id="clip-path-4">
      <path id="Shape-2" data-name="Shape" d="M359-23v4a2.17,2.17,0,0,0,1.328-2A2.17,2.17,0,0,0,359-23" transform="translate(-359 23)" fill="none"/>
    </clipPath>
    <clipPath id="clip-path-5">
      <path id="Shape-3" data-name="Shape" d="M339.333-24.667h15.333A1.333,1.333,0,0,1,356-23.333v4.667h0a1.333,1.333,0,0,1-1.333,1.333H339.333A1.333,1.333,0,0,1,338-18.667v-4.667h0A1.333,1.333,0,0,1,339.333-24.667Z" transform="translate(-338 24.667)" fill="none"/>
    </clipPath>
    <clipPath id="clip-path-6">
      <path id="Shape-4" data-name="Shape" d="M323.33-24.392a8.64,8.64,0,0,1,5.953,2.378.308.308,0,0,0,.433,0l1.156-1.167a.322.322,0,0,0,.093-.229.322.322,0,0,0-.1-.227,10.9,10.9,0,0,0-15.08,0,.322.322,0,0,0-.1.227.322.322,0,0,0,.093.229l1.156,1.167a.308.308,0,0,0,.433,0,8.641,8.641,0,0,1,5.954-2.378Zm0,3.8a4.907,4.907,0,0,1,3.294,1.27.31.31,0,0,0,.433-.006l1.155-1.167a.322.322,0,0,0,.094-.23.322.322,0,0,0-.1-.229,7.159,7.159,0,0,0-9.752,0,.322.322,0,0,0-.1.229.322.322,0,0,0,.094.23l1.154,1.167a.31.31,0,0,0,.433.006,4.907,4.907,0,0,1,3.292-1.27Zm2.219,2.784a.314.314,0,0,0,.094-.231.314.314,0,0,0-.1-.226,3.422,3.422,0,0,0-4.419,0,.314.314,0,0,0-.1.226.314.314,0,0,0,.094.231l2,2.016a.311.311,0,0,0,.222.093.312.312,0,0,0,.222-.093Z" transform="translate(-315.694 26.669)" fill="none"/>
    </clipPath>
    <clipPath id="clip-path-7">
      <path id="Shape-5" data-name="Shape" d="M294.667-19.667h1a1,1,0,0,1,1,1v2a1,1,0,0,1-1,1h-1a1,1,0,0,1-1-1v-2a1,1,0,0,1,1-1Zm4.667-2h1a1,1,0,0,1,1,1v4a1,1,0,0,1-1,1h-1a1,1,0,0,1-1-1v-4A1,1,0,0,1,299.333-21.667ZM304-24h1a1,1,0,0,1,1,1v6.333a1,1,0,0,1-1,1h-1a1,1,0,0,1-1-1V-23A1,1,0,0,1,304-24Zm4.667-2.333h1a1,1,0,0,1,1,1v8.667a1,1,0,0,1-1,1h-1a1,1,0,0,1-1-1v-8.667a1,1,0,0,1,1-1Z" transform="translate(-293.667 26.333)" fill="none"/>
    </clipPath>
    <clipPath id="clip-Log-in">
      <rect width="375" height="733"/>
    </clipPath>
  </defs>
  <g id="Log-in" clip-path="url(#clip-Log-in)">
    <rect width="375" height="733" fill="#fff"/>
    <rect id="Rectangle_1489" data-name="Rectangle 1489" width="378" height="532" transform="translate(-3 203)" fill="#faf7f7"/>
    <rect id="Rectangle_134" data-name="Rectangle 134" width="375" height="204.437" fill="#ea5045"/>
    <text id="ADOBE_XD" data-name="ADOBE XD" transform="translate(188 174.437)" fill="#ea5045" font-size="30" font-family="ArialMT, Arial"><tspan x="-77.52" y="0">ADOBE</tspan><tspan y="0" xml:space="preserve" font-family="Arial-BoldMT, Arial" font-weight="700"> XD</tspan></text>
    <rect id="Rectangle_123" data-name="Rectangle 123" width="295" height="48" rx="24" transform="translate(40 290)" fill="#fff"/>
    <text id="johndoe_mail.com" data-name="johndoe@mail.com" transform="translate(65 319)" fill="#ea5045" font-size="14" font-family="ArialMT, Arial"><tspan x="0" y="0">johndoe@mail.com</tspan></text>
    <g id="inputs" transform="translate(0 153)">
      <rect id="Rectangle_123-2" data-name="Rectangle 123" width="295" height="48" rx="24" transform="translate(40 209)" fill="#fff"/>
      <text id="_" data-name="●●●●●●●" transform="translate(65 238)" fill="#ea5045" font-size="14" font-family="ArialMT, Arial"><tspan x="0" y="0">●●●●●●●</tspan></text>
    </g>
    <g id="Login" transform="translate(0 81)">
      <g id="Rectangle_133" data-name="Rectangle 133" transform="translate(40 579)" fill="none" stroke="#ea5045" stroke-width="2">
        <rect width="295" height="48" rx="24" stroke="none"/>
        <rect x="1" y="1" width="293" height="46" rx="23" fill="none"/>
      </g>
      <text id="LOGIN_WITH_FACEBOOK" data-name="LOGIN WITH FACEBOOK" transform="translate(188 607)" fill="#ea5045" font-size="10" font-family="Arial-BoldMT, Arial" font-weight="700"><tspan x="-59.719" y="0">LOGIN WITH FACEBOOK</tspan></text>
      <g id="Facebook_1" data-name="Facebook – 1" transform="translate(61 595)" clip-path="url(#clip-path)">
        <rect id="Rectangle_1458" data-name="Rectangle 1458" width="16" height="16" fill="none"/>
        <path id="Path_1" data-name="Path 1" d="M85.422,16V8.711h2.489l.356-2.844H85.422V4.089c0-.8.267-1.422,1.422-1.422h1.511V.089C88,.089,87.111,0,86.133,0a3.431,3.431,0,0,0-3.644,3.733V5.867H80V8.711h2.489V16Z" transform="translate(-76)" fill="#ea5045" fill-rule="evenodd"/>
      </g>
    </g>
    <g id="Continue" transform="translate(0 81)">
      <rect id="Rectangle_132" data-name="Rectangle 132" width="295" height="48" rx="24" transform="translate(40 514)" fill="#ea5045"/>
      <text id="CONTINUE-2" data-name="CONTINUE" transform="translate(188 542)" fill="#fff" font-size="10" font-family="Arial-BoldMT, Arial" font-weight="700"><tspan x="-26.111" y="0">CONTINUE</tspan></text>
    </g>
    <rect id="Divider" width="24" height="4" rx="2" transform="translate(176 536)" fill="#dedcdb"/>
    <g id="status-bar-dark" transform="translate(17 16)" clip-path="url(#clip-path-2)">
      <g id="Battery" transform="translate(316 2.333)">
        <g id="Border" clip-path="url(#clip-path-3)">
          <path id="Fill" d="M2.667,0H19.333A2.667,2.667,0,0,1,22,2.667v6h0a2.667,2.667,0,0,1-2.667,2.667H2.667A2.667,2.667,0,0,1,0,8.667v-6H0A2.667,2.667,0,0,1,2.667,0Z" fill="none" stroke="rgba(0,0,0,0.3)" stroke-width="2"/>
        </g>
        <g id="Cap" transform="translate(23 3.667)" clip-path="url(#clip-path-4)">
          <path id="Fill-2" data-name="Fill" d="M354-28h11.328v14H354Z" transform="translate(-359 23)" fill="rgba(0,0,0,0.3)"/>
        </g>
        <g id="Capacity" transform="translate(2 2)" clip-path="url(#clip-path-5)">
          <path id="Fill-3" data-name="Fill" d="M333-29.667h28v17.333H333Z" transform="translate(-338 24.667)" fill="#2b2f3b"/>
        </g>
      </g>
      <g id="Wifi" transform="translate(295.694 2.331)">
        <g id="Wifi-2" data-name="Wifi" clip-path="url(#clip-path-6)">
          <path id="Fill-4" data-name="Fill" d="M310.694-31.669h25.272V-10.7H310.694Z" transform="translate(-315.694 26.669)" fill="#2b2f3b"/>
        </g>
      </g>
      <g id="Cellular_Connection" data-name="Cellular Connection" transform="translate(273.667 2.667)">
        <g id="Cellular_Connection-2" data-name="Cellular Connection" clip-path="url(#clip-path-7)">
          <path id="Fill-5" data-name="Fill" d="M288.667-31.333h27v20.667h-27Z" transform="translate(-293.667 26.333)" fill="#2b2f3b"/>
        </g>
      </g>
      <g id="Bars___Time_Black" data-name="Bars/_/Time Black">
        <path id="Background" d="M21-19H75V-35H21Z" transform="translate(-21 35)" fill="none"/>
        <path id="_Time" data-name="↳ Time" d="M16.433,13.239c2.509,0,4-1.962,4-5.284a6.336,6.336,0,0,0-.7-3.117A3.5,3.5,0,0,0,16.487,2.89a3.43,3.43,0,0,0-3.664,3.466A3.159,3.159,0,0,0,16.07,9.637,2.727,2.727,0,0,0,18.627,8.16h.116c0,2.256-.854,3.6-2.3,3.6a1.716,1.716,0,0,1-1.729-1.21H12.96A3.324,3.324,0,0,0,16.433,13.239Zm.062-5A1.865,1.865,0,0,1,14.553,6.3a1.948,1.948,0,1,1,3.9.027A1.874,1.874,0,0,1,16.494,8.235Zm7.038,3.719a1.08,1.08,0,1,0-1.094-1.08A1.048,1.048,0,0,0,23.532,11.954Zm0-5.127a1.043,1.043,0,0,0,1.094-1.073,1.094,1.094,0,0,0-2.187,0A1.047,1.047,0,0,0,23.532,6.827ZM31.445,13h1.688V11.161h1.333V9.671H33.134V3.136H30.646c-1.743,2.625-3.131,4.819-4.02,6.453v1.572h4.819ZM28.26,9.609c1.148-2.023,2.174-3.644,3.117-5.038h.1V9.712H28.26ZM38.511,13h1.764V3.136H38.518L35.94,4.94v1.7l2.454-1.723h.116Z" transform="translate(0 2)" fill="#2b2f3b"/>
      </g>
    </g>
    <g id="Group_1604" data-name="Group 1604" transform="translate(-27.868 -14.036)">
      <g id="Artwork_2" data-name="Artwork 2" transform="translate(152 100.779)">
        <g id="Artwork_2-2" data-name="Artwork 2" transform="translate(0 0)">
          <path id="Path_115" data-name="Path 115" d="M121.717,0H99.94V5.467h21.418c7.348,0,9.589,2.33,10.126,5.915H109.529c-8.155,0-11.829,3.137-11.829,10.216S101.374,31.9,109.619,31.9h27.243V13.711C136.951,4.481,131.933,0,121.717,0m9.947,26.526H110.246c-6.721,0-6.99-1.523-6.99-4.929s.717-4.75,7.08-4.75h21.239Z" transform="translate(-10.146 0)" fill="#fff"/>
          <path id="Path_116" data-name="Path 116" d="M52.535,20.343H74.312c8.155,0,11.829-3.137,11.829-10.126S82.556,0,74.222,0H62.572C48.772,0,46.8,7.707,46.8,16.041s1.972,15.951,15.683,15.951H84.8V26.616H62.931c-7.528,0-9.678-1.972-10.4-6.183m10.4-15.145H73.684c6.363,0,6.99,1.523,6.99,4.929s-.627,4.66-7.08,4.66H52.267c.179-6.721,1.882-9.589,10.664-9.589" transform="translate(-4.86)" fill="#fff"/>
          <path id="Path_117" data-name="Path 117" d="M31.365,0,5.377,24.823V0H0V31.993H5.735L18.192,20.074,32.351,31.993h8.513L22.135,16.31,39.162,0Z" fill="#fff"/>
        </g>
      </g>
    </g>
  </g>
</svg>
